<svg width="134" height="32" viewBox="0 0 134 32" fill="none" xmlns="http://www.w3.org/2000/svg">
<path d="M12 16C12 16.3536 11.8596 16.6928 11.6095 16.9428C11.3595 17.1928 11.0203 17.3333 10.6667 17.3333C10.3131 17.3333 9.97395 17.1928 9.7239 16.9428C9.47385 16.6928 9.33337 16.3536 9.33337 16C9.33337 15.6464 9.47385 15.3072 9.7239 15.0572C9.97395 14.8071 10.3131 14.6667 10.6667 14.6667C11.0203 14.6667 11.3595 14.8071 11.6095 15.0572C11.8596 15.3072 12 15.6464 12 16ZM17.3334 16C17.3334 16.3536 17.1929 16.6928 16.9428 16.9428C16.6928 17.1928 16.3537 17.3333 16 17.3333C15.6464 17.3333 15.3073 17.1928 15.0572 16.9428C14.8072 16.6928 14.6667 16.3536 14.6667 16C14.6667 15.6464 14.8072 15.3072 15.0572 15.0572C15.3073 14.8071 15.6464 14.6667 16 14.6667C16.3537 14.6667 16.6928 14.8071 16.9428 15.0572C17.1929 15.3072 17.3334 15.6464 17.3334 16Z" fill="white"/>
<path d="M20 2.66666V29.3333M29.3334 16C29.3334 21.028 29.3334 23.5427 27.7707 25.104C26.3534 26.5227 24.152 26.6533 20 26.6667M16 5.33332H13.3334C8.30535 5.33332 5.79069 5.33332 4.22935 6.89599C2.66669 8.45732 2.66669 10.972 2.66669 16C2.66669 21.028 2.66669 23.5427 4.22935 25.104C5.79069 26.6667 8.30535 26.6667 13.3334 26.6667H16M20 5.33332C24.152 5.34666 26.3534 5.47732 27.7707 6.89599C28.6427 7.76666 29.028 8.93332 29.1974 10.6667" stroke="white" stroke-width="1.5" stroke-linecap="round"/>
<path d="M42.3438 24.9688V12.4297C42.3438 10.7422 42.8711 9.35547 43.9258 8.26953C45.0352 7.13672 46.4805 6.57031 48.2617 6.57031C49.8711 6.57031 51.2422 7.13672 52.375 8.26953C52.6562 8.55078 52.8672 8.82422 53.0078 9.08984C53.1875 8.81641 53.4062 8.55469 53.6641 8.30469C54.8438 7.14844 56.207 6.57031 57.7539 6.57031C59.5039 6.57031 60.9492 7.13672 62.0898 8.26953C63.1445 9.31641 63.6719 10.7031 63.6719 12.4297V23.9141L61.4453 24.9688H61.3281V12.4297C61.3281 11.3828 61.0469 10.5352 60.4844 9.88672C59.7891 9.08203 58.8789 8.67969 57.7539 8.67969C56.6289 8.67969 55.7188 9.08203 55.0234 9.88672C54.4609 10.5352 54.1797 11.3828 54.1797 12.4297V23.9141L51.9531 24.9688H51.8359V12.4297C51.8359 11.3828 51.5547 10.5352 50.9922 9.88672C50.2969 9.08203 49.3867 8.67969 48.2617 8.67969C47.1367 8.67969 46.2266 9.08203 45.5312 9.88672C44.9688 10.5352 44.6875 11.3828 44.6875 12.4297V23.9141L42.4609 24.9688H42.3438ZM67.1594 24.9688V7.39062L68.4016 6.80469H72.843C74.6242 6.80469 76.0695 7.37109 77.1789 8.50391C78.2336 9.58203 78.7609 10.9688 78.7609 12.6641C78.7609 14.3672 78.2336 15.7539 77.1789 16.8242C76.5539 17.457 75.8234 17.9141 74.9875 18.1953L79.0422 23.9961L76.9797 24.9688H76.8625L72.3508 18.5234H69.5031V23.9141L67.2766 24.9688H67.1594ZM69.5031 16.4141H72.843C73.8664 16.4141 74.7766 16.0117 75.5734 15.207C76.1359 14.6367 76.4172 13.7891 76.4172 12.6641C76.4172 11.6172 76.1359 10.7695 75.5734 10.1211C74.8781 9.31641 73.968 8.91406 72.843 8.91406H69.5031V16.4141ZM81.3578 24.5V24.3828L88.9398 8.9375H81.475V8.82031L82.4242 6.80469H92.5727V6.92188L84.9555 22.3672H92.6898V22.4844L91.7406 24.5H81.3578ZM94.4594 20.3633L96.6859 19.3086H96.8031V20.2461C96.8031 21.1211 97.057 21.7852 97.5648 22.2383C98.0492 22.668 98.6352 22.8828 99.3227 22.8828C100.12 22.8828 100.741 22.6289 101.186 22.1211C101.655 21.5898 101.889 21.0117 101.889 20.3867C101.889 19.7148 101.639 19.1836 101.139 18.793C100.709 18.457 100.1 18.2891 99.3109 18.2891C97.9203 18.2891 96.8227 17.9844 96.018 17.375C95.307 16.8438 94.9516 16.0195 94.9516 14.9023C94.9516 13.8164 95.4477 12.918 96.4398 12.207C97.2133 11.6523 98.1742 11.375 99.3227 11.375C100.424 11.375 101.381 11.7188 102.194 12.4062C102.819 12.9453 103.205 13.5703 103.354 14.2812L101.127 15.3359H101.01V14.9961C101.01 14.5898 100.893 14.2422 100.659 13.9531C100.284 13.4688 99.7484 13.2266 99.0531 13.2266C98.4984 13.2266 98.0453 13.4023 97.6937 13.7539C97.35 14.0977 97.1781 14.4805 97.1781 14.9023C97.1781 15.4023 97.3891 15.8008 97.8109 16.0977C98.0453 16.2617 98.5453 16.3438 99.3109 16.3438C100.897 16.3438 102.088 16.707 102.885 17.4336C103.752 18.2227 104.186 19.25 104.186 20.5156C104.186 21.5312 103.737 22.5 102.838 23.4219C101.987 24.2969 100.815 24.7344 99.3227 24.7344C97.9711 24.7344 96.8344 24.3594 95.9125 23.6094C94.9437 22.8203 94.4594 21.7383 94.4594 20.3633ZM108.112 9.01953C107.838 8.73828 107.702 8.40234 107.702 8.01172C107.702 7.61328 107.838 7.27344 108.112 6.99219C108.385 6.71094 108.717 6.57031 109.108 6.57031C109.498 6.57031 109.83 6.71094 110.104 6.99219C110.377 7.27344 110.514 7.61328 110.514 8.01172C110.514 8.40234 110.377 8.73828 110.104 9.01953C109.83 9.30078 109.498 9.44141 109.108 9.44141C108.717 9.44141 108.385 9.30078 108.112 9.01953ZM107.936 24.9688V12.1953L110.162 11.1406H110.28V23.9141L108.053 24.9688H107.936ZM114.381 24.9688V16.0625C114.381 14.7734 114.866 13.6523 115.834 12.6992C116.741 11.8164 117.877 11.375 119.245 11.375C120.487 11.375 121.561 11.8281 122.467 12.7344C122.639 12.9062 122.795 13.1094 122.936 13.3438C123.077 13.1172 123.233 12.918 123.405 12.7461C124.381 11.832 125.455 11.375 126.627 11.375C127.979 11.375 129.116 11.8164 130.037 12.6992C131.006 13.6367 131.491 14.7578 131.491 16.0625V23.9141L129.264 24.9688H129.147V16.0625C129.147 15.1641 128.901 14.5078 128.409 14.0938C127.924 13.6719 127.33 13.4609 126.627 13.4609C125.924 13.4609 125.327 13.6719 124.834 14.0938C124.35 14.5078 124.108 15.1641 124.108 16.0625V23.9141L121.881 24.9688H121.764V16.0625C121.764 15.1641 121.518 14.5078 121.026 14.0938C120.541 13.6719 119.948 13.4609 119.245 13.4609C118.541 13.4609 117.944 13.6719 117.452 14.0938C116.967 14.5078 116.725 15.1641 116.725 16.0625V23.9141L114.498 24.9688H114.381Z" fill="white"/>
</svg>
