<svg width="32" height="32" viewBox="0 0 32 32" fill="none" xmlns="http://www.w3.org/2000/svg">
<style>
path {
    stroke: #0f172b;
}
@media (prefer-color-scheme: dark) {
    stroke: #f1f5f9;
}
</style>
<path d="M12 16C12 16.3536 11.8596 16.6928 11.6095 16.9428C11.3595 17.1928 11.0203 17.3333 10.6667 17.3333C10.3131 17.3333 9.97395 17.1928 9.7239 16.9428C9.47385 16.6928 9.33337 16.3536 9.33337 16C9.33337 15.6464 9.47385 15.3072 9.7239 15.0572C9.97395 14.8071 10.3131 14.6667 10.6667 14.6667C11.0203 14.6667 11.3595 14.8071 11.6095 15.0572C11.8596 15.3072 12 15.6464 12 16ZM17.3334 16C17.3334 16.3536 17.1929 16.6928 16.9428 16.9428C16.6928 17.1928 16.3537 17.3333 16 17.3333C15.6464 17.3333 15.3073 17.1928 15.0572 16.9428C14.8072 16.6928 14.6667 16.3536 14.6667 16C14.6667 15.6464 14.8072 15.3072 15.0572 15.0572C15.3073 14.8071 15.6464 14.6667 16 14.6667C16.3537 14.6667 16.6928 14.8071 16.9428 15.0572C17.1929 15.3072 17.3334 15.6464 17.3334 16Z"/>
<path d="M20 2.66666V29.3333M29.3334 16C29.3334 21.028 29.3334 23.5427 27.7707 25.104C26.3534 26.5227 24.152 26.6533 20 26.6667M16 5.33332H13.3334C8.30535 5.33332 5.79069 5.33332 4.22935 6.89599C2.66669 8.45732 2.66669 10.972 2.66669 16C2.66669 21.028 2.66669 23.5427 4.22935 25.104C5.79069 26.6667 8.30535 26.6667 13.3334 26.6667H16M20 5.33332C24.152 5.34666 26.3534 5.47732 27.7707 6.89599C28.6427 7.76666 29.028 8.93332 29.1974 10.6667" stroke-width="1.5" stroke-linecap="round"/>
</svg>
